<svg xmlns="http://www.w3.org/2000/svg" xmlns:xlink="http://www.w3.org/1999/xlink" contentStyleType="text/css" data-diagram-type="CLASS" height="297px" preserveAspectRatio="none" style="width:323px;height:297px;background:#FFFFFF;" version="1.1" viewBox="0 0 323 297" width="323px" zoomAndPan="magnify"><defs/><g><!--class BeModelVaccinationReduced--><g class="entity" data-entity="BeModelVaccinationReduced" data-source-line="6" data-uid="ent0002" id="entity_BeModelVaccinationReduced"><rect fill="#B5E8F7" height="276.5313" rx="2.5" ry="2.5" style="stroke:#181818;stroke-width:0.5;" width="302.5527" x="7" y="7"/><text fill="#000000" font-family="sans-serif" font-size="14" font-weight="bold" lengthAdjust="spacing" textLength="196.041" x="60.2559" y="26.5332">BeModelVaccinationReduced</text><line style="stroke:#181818;stroke-width:0.5;" x1="8" x2="308.5527" y1="34.6094" y2="34.6094"/><text fill="#000000" font-family="sans-serif" font-size="14" lengthAdjust="spacing" textLength="214.0195" x="28.8896" y="59.1426">patient 1..1   &#171;Reference(Patient)&#187;</text><text fill="#000000" font-family="sans-serif" font-size="14" lengthAdjust="spacing" textLength="259.8887" x="28.8896" y="76.752">performer 1..1   &#171;Reference(Practitioner)&#187;</text><text fill="#000000" font-family="sans-serif" font-size="14" lengthAdjust="spacing" textLength="155.6406" x="28.8896" y="94.3613">administeredProduct 1..1</text><text fill="#000000" font-family="sans-serif" font-size="14" lengthAdjust="spacing" textLength="145.5439" x="36.8896" y="111.9707">product 1..1   &#171;Coding&#187;</text><text fill="#000000" font-family="sans-serif" font-size="14" lengthAdjust="spacing" textLength="156.4199" x="36.8896" y="129.5801">description 1..1   &#171;string&#187;</text><text fill="#000000" font-family="sans-serif" font-size="14" lengthAdjust="spacing" textLength="153.2959" x="36.8896" y="147.1895">lotNumber 0..1   &#171;string&#187;</text><text fill="#000000" font-family="sans-serif" font-size="14" lengthAdjust="spacing" textLength="161.0957" x="28.8896" y="164.7988">identifier 0..1   &#171;Identifier&#187;</text><text fill="#000000" font-family="sans-serif" font-size="14" lengthAdjust="spacing" textLength="272.8838" x="28.8896" y="182.4082">vaccinationDate[x] 0..1   &#171;dateTime | string&#187;</text><text fill="#000000" font-family="sans-serif" font-size="14" lengthAdjust="spacing" textLength="168.0957" x="28.8896" y="200.0176">recorded 1..1   &#171;dateTime&#187;</text><text fill="#000000" font-family="sans-serif" font-size="14" lengthAdjust="spacing" textLength="250.6055" x="28.8896" y="217.627">doseQuantity 0..1   &#171;BackboneElement&#187;</text><text fill="#000000" font-family="sans-serif" font-size="14" lengthAdjust="spacing" textLength="252.9434" x="28.8896" y="235.2363">targetDisease 1..1   &#171;CodeableConcept&#187;</text><text fill="#000000" font-family="sans-serif" font-size="14" lengthAdjust="spacing" textLength="193.7715" x="28.8896" y="252.8457">sideEffects 0..1   &#171;Attachment&#187;</text><text fill="#000000" font-family="sans-serif" font-size="14" lengthAdjust="spacing" textLength="203.9229" x="28.8896" y="270.4551">cause 0..1   &#171;CodeableConcept&#187;</text><rect fill="#B5E8F7" height="2" style="stroke:#000000;stroke-width:1;" width="2" x="22" y="52.4141"/><line style="stroke:#000000;stroke-width:1;" x1="15" x2="23" y1="53.4141" y2="53.4141"/><line style="stroke:#000000;stroke-width:1;" x1="15" x2="15" y1="44.6094" y2="53.4141"/><rect fill="#B5E8F7" height="2" style="stroke:#000000;stroke-width:1;" width="2" x="22" y="70.0234"/><line style="stroke:#000000;stroke-width:1;" x1="15" x2="23" y1="71.0234" y2="71.0234"/><line style="stroke:#000000;stroke-width:1;" x1="15" x2="15" y1="53.4141" y2="71.0234"/><rect fill="#B5E8F7" height="2" style="stroke:#000000;stroke-width:1;" width="2" x="22" y="87.6328"/><line style="stroke:#000000;stroke-width:1;" x1="15" x2="23" y1="88.6328" y2="88.6328"/><line style="stroke:#000000;stroke-width:1;" x1="15" x2="15" y1="71.0234" y2="88.6328"/><rect fill="#B5E8F7" height="2" style="stroke:#000000;stroke-width:1;" width="2" x="30" y="105.2422"/><line style="stroke:#000000;stroke-width:1;" x1="23" x2="31" y1="106.2422" y2="106.2422"/><line style="stroke:#000000;stroke-width:1;" x1="23" x2="23" y1="88.6328" y2="106.2422"/><rect fill="#B5E8F7" height="2" style="stroke:#000000;stroke-width:1;" width="2" x="30" y="122.8516"/><line style="stroke:#000000;stroke-width:1;" x1="23" x2="31" y1="123.8516" y2="123.8516"/><line style="stroke:#000000;stroke-width:1;" x1="23" x2="23" y1="106.2422" y2="123.8516"/><rect fill="#B5E8F7" height="2" style="stroke:#000000;stroke-width:1;" width="2" x="30" y="140.4609"/><line style="stroke:#000000;stroke-width:1;" x1="23" x2="31" y1="141.4609" y2="141.4609"/><line style="stroke:#000000;stroke-width:1;" x1="23" x2="23" y1="123.8516" y2="141.4609"/><rect fill="#B5E8F7" height="2" style="stroke:#000000;stroke-width:1;" width="2" x="22" y="158.0703"/><line style="stroke:#000000;stroke-width:1;" x1="15" x2="23" y1="159.0703" y2="159.0703"/><line style="stroke:#000000;stroke-width:1;" x1="15" x2="15" y1="88.6328" y2="159.0703"/><rect fill="#B5E8F7" height="2" style="stroke:#000000;stroke-width:1;" width="2" x="22" y="175.6797"/><line style="stroke:#000000;stroke-width:1;" x1="15" x2="23" y1="176.6797" y2="176.6797"/><line style="stroke:#000000;stroke-width:1;" x1="15" x2="15" y1="159.0703" y2="176.6797"/><rect fill="#B5E8F7" height="2" style="stroke:#000000;stroke-width:1;" width="2" x="22" y="193.2891"/><line style="stroke:#000000;stroke-width:1;" x1="15" x2="23" y1="194.2891" y2="194.2891"/><line style="stroke:#000000;stroke-width:1;" x1="15" x2="15" y1="176.6797" y2="194.2891"/><rect fill="#B5E8F7" height="2" style="stroke:#000000;stroke-width:1;" width="2" x="22" y="210.8984"/><line style="stroke:#000000;stroke-width:1;" x1="15" x2="23" y1="211.8984" y2="211.8984"/><line style="stroke:#000000;stroke-width:1;" x1="15" x2="15" y1="194.2891" y2="211.8984"/><rect fill="#B5E8F7" height="2" style="stroke:#000000;stroke-width:1;" width="2" x="22" y="228.5078"/><line style="stroke:#000000;stroke-width:1;" x1="15" x2="23" y1="229.5078" y2="229.5078"/><line style="stroke:#000000;stroke-width:1;" x1="15" x2="15" y1="211.8984" y2="229.5078"/><rect fill="#B5E8F7" height="2" style="stroke:#000000;stroke-width:1;" width="2" x="22" y="246.1172"/><line style="stroke:#000000;stroke-width:1;" x1="15" x2="23" y1="247.1172" y2="247.1172"/><line style="stroke:#000000;stroke-width:1;" x1="15" x2="15" y1="229.5078" y2="247.1172"/><rect fill="#B5E8F7" height="2" style="stroke:#000000;stroke-width:1;" width="2" x="22" y="263.7266"/><line style="stroke:#000000;stroke-width:1;" x1="15" x2="23" y1="264.7266" y2="264.7266"/><line style="stroke:#000000;stroke-width:1;" x1="15" x2="15" y1="247.1172" y2="264.7266"/><line style="stroke:#181818;stroke-width:1;" x1="8" x2="308.5527" y1="275.5313" y2="275.5313"/></g><!--SRC=[VPB1IWCn48RlUOgXNhJGqXv43rAmsmeUb5h4YuXCazasD9iiawnOhEzkTdLtkrAz9PCltqn-uhVQviYOGMBG-odAxPfTOLNYZ6CucPxFBsykX6ymeos5NKwGExChDsAZ5O7KBCtFsWTYSYKaX2ojqEltftJd59adb59R3DhP9Qb2akhtUu0U_Zo73x5_XJoMo0OO3uTZ0BYwMb8QkrX9fullexF91A12YLF76V5Hc546NUg9cnkeCcrrDRPQi8jjwqO2e3HsQj6NEANjkhfU0OgyP9sNsXRoWJkGSU6-o5Pnhj4H908nEnjqgW-9swPMKszjGZCCzFp-qj8g5XvrHh27hff9EbOnpF5lj2QKy_HGO6mMTgsm_0-hcDNSK1O7gU60lAOmqvxGKoSMmfMXnCMeyuRsyM7pD2KPV6k-3W7bvb0giOYoqN-omK1yYYy0]--></g></svg>