<svg xmlns="http://www.w3.org/2000/svg" xmlns:xlink="http://www.w3.org/1999/xlink" contentStyleType="text/css" data-diagram-type="CLASS" height="332px" preserveAspectRatio="none" style="width:296px;height:332px;background:#FFFFFF;" version="1.1" viewBox="0 0 296 332" width="296px" zoomAndPan="magnify"><defs/><g><!--class BeModelPatientWill--><g class="entity" data-entity="BeModelPatientWill" data-source-line="6" data-uid="ent0002" id="entity_BeModelPatientWill"><rect fill="#B5E8F7" height="311.75" rx="2.5" ry="2.5" style="stroke:#181818;stroke-width:0.5;" width="275.833" x="7" y="7"/><text fill="#000000" font-family="sans-serif" font-size="14" font-weight="bold" lengthAdjust="spacing" textLength="129.8965" x="79.9683" y="26.5332">BeModelPatientWill</text><line style="stroke:#181818;stroke-width:0.5;" x1="8" x2="281.833" y1="34.6094" y2="34.6094"/><text fill="#000000" font-family="sans-serif" font-size="14" lengthAdjust="spacing" textLength="197.668" x="28.8896" y="59.1426">recordedDate 1..1   &#171;dateTime&#187;</text><text fill="#000000" font-family="sans-serif" font-size="14" lengthAdjust="spacing" textLength="161.0957" x="28.8896" y="76.752">identifier 0..1   &#171;Identifier&#187;</text><text fill="#000000" font-family="sans-serif" font-size="14" lengthAdjust="spacing" textLength="150.2129" x="28.8896" y="94.3613">patient 1..1   &#171;Identifier&#187;</text><text fill="#000000" font-family="sans-serif" font-size="14" lengthAdjust="spacing" textLength="160.3096" x="28.8896" y="111.9707">recorder 1..1   &#171;Identifier&#187;</text><text fill="#000000" font-family="sans-serif" font-size="14" lengthAdjust="spacing" textLength="113.6201" x="28.8896" y="129.5801">representative 0..*</text><text fill="#000000" font-family="sans-serif" font-size="14" lengthAdjust="spacing" textLength="189.9092" x="36.8896" y="147.1895">role 0..1   &#171;CodeableConcept&#187;</text><text fill="#000000" font-family="sans-serif" font-size="14" lengthAdjust="spacing" textLength="238.1641" x="36.8896" y="164.7988">relationship 0..1   &#171;CodeableConcept&#187;</text><text fill="#000000" font-family="sans-serif" font-size="14" lengthAdjust="spacing" textLength="177.9395" x="28.8896" y="182.4082">source[x] 0..1   &#171;Binary | url&#187;</text><text fill="#000000" font-family="sans-serif" font-size="14" lengthAdjust="spacing" textLength="220.2607" x="28.8896" y="200.0176">category 1..1   &#171;CodeableConcept&#187;</text><text fill="#000000" font-family="sans-serif" font-size="14" lengthAdjust="spacing" textLength="80.1514" x="28.8896" y="217.627">willCode 1..1</text><text fill="#000000" font-family="sans-serif" font-size="14" lengthAdjust="spacing" textLength="203.916" x="36.8896" y="235.2363">status 0..1   &#171;CodeableConcept&#187;</text><text fill="#000000" font-family="sans-serif" font-size="14" lengthAdjust="spacing" textLength="66.1582" x="36.8896" y="252.8457">period 0..1</text><text fill="#000000" font-family="sans-serif" font-size="14" lengthAdjust="spacing" textLength="178.9854" x="44.8896" y="270.4551">startperiod 0..1   &#171;dateTime&#187;</text><text fill="#000000" font-family="sans-serif" font-size="14" lengthAdjust="spacing" textLength="175.1162" x="44.8896" y="288.0645">endperiod 0..1   &#171;dateTime&#187;</text><text fill="#000000" font-family="sans-serif" font-size="14" lengthAdjust="spacing" textLength="115.9648" x="28.8896" y="305.6738">note 0..1   &#171;string&#187;</text><rect fill="#B5E8F7" height="2" style="stroke:#000000;stroke-width:1;" width="2" x="22" y="52.4141"/><line style="stroke:#000000;stroke-width:1;" x1="15" x2="23" y1="53.4141" y2="53.4141"/><line style="stroke:#000000;stroke-width:1;" x1="15" x2="15" y1="44.6094" y2="53.4141"/><rect fill="#B5E8F7" height="2" style="stroke:#000000;stroke-width:1;" width="2" x="22" y="70.0234"/><line style="stroke:#000000;stroke-width:1;" x1="15" x2="23" y1="71.0234" y2="71.0234"/><line style="stroke:#000000;stroke-width:1;" x1="15" x2="15" y1="53.4141" y2="71.0234"/><rect fill="#B5E8F7" height="2" style="stroke:#000000;stroke-width:1;" width="2" x="22" y="87.6328"/><line style="stroke:#000000;stroke-width:1;" x1="15" x2="23" y1="88.6328" y2="88.6328"/><line style="stroke:#000000;stroke-width:1;" x1="15" x2="15" y1="71.0234" y2="88.6328"/><rect fill="#B5E8F7" height="2" style="stroke:#000000;stroke-width:1;" width="2" x="22" y="105.2422"/><line style="stroke:#000000;stroke-width:1;" x1="15" x2="23" y1="106.2422" y2="106.2422"/><line style="stroke:#000000;stroke-width:1;" x1="15" x2="15" y1="88.6328" y2="106.2422"/><rect fill="#B5E8F7" height="2" style="stroke:#000000;stroke-width:1;" width="2" x="22" y="122.8516"/><line style="stroke:#000000;stroke-width:1;" x1="15" x2="23" y1="123.8516" y2="123.8516"/><line style="stroke:#000000;stroke-width:1;" x1="15" x2="15" y1="106.2422" y2="123.8516"/><rect fill="#B5E8F7" height="2" style="stroke:#000000;stroke-width:1;" width="2" x="30" y="140.4609"/><line style="stroke:#000000;stroke-width:1;" x1="23" x2="31" y1="141.4609" y2="141.4609"/><line style="stroke:#000000;stroke-width:1;" x1="23" x2="23" y1="123.8516" y2="141.4609"/><rect fill="#B5E8F7" height="2" style="stroke:#000000;stroke-width:1;" width="2" x="30" y="158.0703"/><line style="stroke:#000000;stroke-width:1;" x1="23" x2="31" y1="159.0703" y2="159.0703"/><line style="stroke:#000000;stroke-width:1;" x1="23" x2="23" y1="141.4609" y2="159.0703"/><rect fill="#B5E8F7" height="2" style="stroke:#000000;stroke-width:1;" width="2" x="22" y="175.6797"/><line style="stroke:#000000;stroke-width:1;" x1="15" x2="23" y1="176.6797" y2="176.6797"/><line style="stroke:#000000;stroke-width:1;" x1="15" x2="15" y1="123.8516" y2="176.6797"/><rect fill="#B5E8F7" height="2" style="stroke:#000000;stroke-width:1;" width="2" x="22" y="193.2891"/><line style="stroke:#000000;stroke-width:1;" x1="15" x2="23" y1="194.2891" y2="194.2891"/><line style="stroke:#000000;stroke-width:1;" x1="15" x2="15" y1="176.6797" y2="194.2891"/><rect fill="#B5E8F7" height="2" style="stroke:#000000;stroke-width:1;" width="2" x="22" y="210.8984"/><line style="stroke:#000000;stroke-width:1;" x1="15" x2="23" y1="211.8984" y2="211.8984"/><line style="stroke:#000000;stroke-width:1;" x1="15" x2="15" y1="194.2891" y2="211.8984"/><rect fill="#B5E8F7" height="2" style="stroke:#000000;stroke-width:1;" width="2" x="30" y="228.5078"/><line style="stroke:#000000;stroke-width:1;" x1="23" x2="31" y1="229.5078" y2="229.5078"/><line style="stroke:#000000;stroke-width:1;" x1="23" x2="23" y1="211.8984" y2="229.5078"/><rect fill="#B5E8F7" height="2" style="stroke:#000000;stroke-width:1;" width="2" x="30" y="246.1172"/><line style="stroke:#000000;stroke-width:1;" x1="23" x2="31" y1="247.1172" y2="247.1172"/><line style="stroke:#000000;stroke-width:1;" x1="23" x2="23" y1="229.5078" y2="247.1172"/><rect fill="#B5E8F7" height="2" style="stroke:#000000;stroke-width:1;" width="2" x="38" y="263.7266"/><line style="stroke:#000000;stroke-width:1;" x1="31" x2="39" y1="264.7266" y2="264.7266"/><line style="stroke:#000000;stroke-width:1;" x1="31" x2="31" y1="247.1172" y2="264.7266"/><rect fill="#B5E8F7" height="2" style="stroke:#000000;stroke-width:1;" width="2" x="38" y="281.3359"/><line style="stroke:#000000;stroke-width:1;" x1="31" x2="39" y1="282.3359" y2="282.3359"/><line style="stroke:#000000;stroke-width:1;" x1="31" x2="31" y1="264.7266" y2="282.3359"/><rect fill="#B5E8F7" height="2" style="stroke:#000000;stroke-width:1;" width="2" x="22" y="298.9453"/><line style="stroke:#000000;stroke-width:1;" x1="15" x2="23" y1="299.9453" y2="299.9453"/><line style="stroke:#000000;stroke-width:1;" x1="15" x2="15" y1="211.8984" y2="299.9453"/><line style="stroke:#181818;stroke-width:1;" x1="8" x2="281.833" y1="310.75" y2="310.75"/></g><!--SRC=[ZP5DImCn48Rl-HL3lIrKx47qK7hOLS63u47m828n6TlGD1CcMRLO_xkJThTL2zLRPjvdtlb8chiGDUi5D5wdL6ipdpArmJRaYU6eFhqylpfJQOjv5p0l8q8aloo1cZcBO1mRtxrJHaOga5AckCAWgcgy8Ol-LcU78Tyxxwjg03h1lW0VQlK4Z8ROehtG6M5qV3m2WF7OIdJd5ZYP01HA-eNiNXmodFJCzJRNKt5ZlhFPHxfsV9Y9Z4coOlUAfM4b0a2HoEDkWaOsqiyU6me6OrxNRp3qKaiXpLmyZ0kSg6M33- -FEx9sGVCILj2oxp4Z9vcIP4T_-Bt9ROlKWPk9aYpJfd-C7f4TsGwKL5_D-OVo-uyw48CzY0aIA7yxOShimdIj3OVgKtq1]--></g></svg>