<svg xmlns="http://www.w3.org/2000/svg" xmlns:xlink="http://www.w3.org/1999/xlink" contentStyleType="text/css" data-diagram-type="CLASS" height="209px" preserveAspectRatio="none" style="width:324px;height:209px;background:#FFFFFF;" version="1.1" viewBox="0 0 324 209" width="324px" zoomAndPan="magnify"><defs/><g><!--class PSSFeedbackModel--><g class="entity" data-entity="PSSFeedbackModel" data-source-line="6" data-uid="ent0002" id="entity_PSSFeedbackModel"><rect fill="#B5E8F7" height="188.4844" rx="2.5" ry="2.5" style="stroke:#181818;stroke-width:0.5;" width="303.0674" x="7" y="7"/><text fill="#000000" font-family="sans-serif" font-size="14" font-weight="bold" lengthAdjust="spacing" textLength="133.041" x="92.0132" y="26.5332">PSSFeedbackModel</text><line style="stroke:#181818;stroke-width:0.5;" x1="8" x2="309.0674" y1="34.6094" y2="34.6094"/><text fill="#000000" font-family="sans-serif" font-size="14" lengthAdjust="spacing" textLength="124.5029" x="28.8896" y="59.1426">pssID 1..1   &#171;string&#187;</text><text fill="#000000" font-family="sans-serif" font-size="14" lengthAdjust="spacing" textLength="238.1094" x="28.8896" y="76.752">outcomeTimeStamp 1..1   &#171;dateTime&#187;</text><text fill="#000000" font-family="sans-serif" font-size="14" lengthAdjust="spacing" textLength="138.5371" x="28.8896" y="94.3613">outcome 1..1   &#171;code&#187;</text><text fill="#000000" font-family="sans-serif" font-size="14" lengthAdjust="spacing" textLength="149.4199" x="28.8896" y="111.9707">suggestionOutcome 0..*</text><text fill="#000000" font-family="sans-serif" font-size="14" lengthAdjust="spacing" textLength="168.1094" x="36.8896" y="129.5801">suggestionId 0..1   &#171;string&#187;</text><text fill="#000000" font-family="sans-serif" font-size="14" lengthAdjust="spacing" textLength="138.5371" x="36.8896" y="147.1895">outcome 1..1   &#171;code&#187;</text><text fill="#000000" font-family="sans-serif" font-size="14" lengthAdjust="spacing" textLength="265.3984" x="36.8896" y="164.7988">overrideReason 0..1   &#171;CodeableConcept&#187;</text><text fill="#000000" font-family="sans-serif" font-size="14" lengthAdjust="spacing" textLength="216.3574" x="36.8896" y="182.4082">otherOptionSelected 0..1   &#171;string&#187;</text><rect fill="#B5E8F7" height="2" style="stroke:#000000;stroke-width:1;" width="2" x="22" y="52.4141"/><line style="stroke:#000000;stroke-width:1;" x1="15" x2="23" y1="53.4141" y2="53.4141"/><line style="stroke:#000000;stroke-width:1;" x1="15" x2="15" y1="44.6094" y2="53.4141"/><rect fill="#B5E8F7" height="2" style="stroke:#000000;stroke-width:1;" width="2" x="22" y="70.0234"/><line style="stroke:#000000;stroke-width:1;" x1="15" x2="23" y1="71.0234" y2="71.0234"/><line style="stroke:#000000;stroke-width:1;" x1="15" x2="15" y1="53.4141" y2="71.0234"/><rect fill="#B5E8F7" height="2" style="stroke:#000000;stroke-width:1;" width="2" x="22" y="87.6328"/><line style="stroke:#000000;stroke-width:1;" x1="15" x2="23" y1="88.6328" y2="88.6328"/><line style="stroke:#000000;stroke-width:1;" x1="15" x2="15" y1="71.0234" y2="88.6328"/><rect fill="#B5E8F7" height="2" style="stroke:#000000;stroke-width:1;" width="2" x="22" y="105.2422"/><line style="stroke:#000000;stroke-width:1;" x1="15" x2="23" y1="106.2422" y2="106.2422"/><line style="stroke:#000000;stroke-width:1;" x1="15" x2="15" y1="88.6328" y2="106.2422"/><rect fill="#B5E8F7" height="2" style="stroke:#000000;stroke-width:1;" width="2" x="30" y="122.8516"/><line style="stroke:#000000;stroke-width:1;" x1="23" x2="31" y1="123.8516" y2="123.8516"/><line style="stroke:#000000;stroke-width:1;" x1="23" x2="23" y1="106.2422" y2="123.8516"/><rect fill="#B5E8F7" height="2" style="stroke:#000000;stroke-width:1;" width="2" x="30" y="140.4609"/><line style="stroke:#000000;stroke-width:1;" x1="23" x2="31" y1="141.4609" y2="141.4609"/><line style="stroke:#000000;stroke-width:1;" x1="23" x2="23" y1="123.8516" y2="141.4609"/><rect fill="#B5E8F7" height="2" style="stroke:#000000;stroke-width:1;" width="2" x="30" y="158.0703"/><line style="stroke:#000000;stroke-width:1;" x1="23" x2="31" y1="159.0703" y2="159.0703"/><line style="stroke:#000000;stroke-width:1;" x1="23" x2="23" y1="141.4609" y2="159.0703"/><rect fill="#B5E8F7" height="2" style="stroke:#000000;stroke-width:1;" width="2" x="30" y="175.6797"/><line style="stroke:#000000;stroke-width:1;" x1="23" x2="31" y1="176.6797" y2="176.6797"/><line style="stroke:#000000;stroke-width:1;" x1="23" x2="23" y1="159.0703" y2="176.6797"/><line style="stroke:#181818;stroke-width:1;" x1="8" x2="309.0674" y1="187.4844" y2="187.4844"/></g><!--SRC=[TP31JW8n48RlVOe9t9gmaOFH0-70AWa7Wd6zcz9EbePkf-bqJOZwxhQ8hYBUflDzC_-alBS-gAWwg9rYNYYzRoFrtjJaAC9uSNr_kxmH_Aqvwp4T0a8WToWFiRC6GTketQdcX16fI4BeiXL6KZuqpHBHR7F0cWmwAKUW6CxRy2hUdY4mh-vWMbLJ09ZDE4Nhs_aSe43gawOEdso7JL9T63oZqh5zPWw2pX5VaFksHKwM_EQaNLMLp0pW5rsP0luSShJ-3_Z4BnXZ_f57L4n-M5DdIsqTrkGrXlHZ8EqmRaA9RT2XJdWvV38Hx-83]--></g></svg>